HIERARCHY
ROOT Hips
{
  OFFSET 49.1607 49.7794 -6.72879
  CHANNELS 6 Xposition Yposition Zposition Zrotation Xrotation Yrotation
  JOINT spine
  {
    OFFSET 0 6.24479 0.359107
    CHANNELS 3 Zrotation Xrotation Yrotation
    JOINT spine1
    {
      OFFSET 0 9.06941 0
      CHANNELS 3 Zrotation Xrotation Yrotation
      JOINT spine2
      {
        OFFSET 0 8.69014 0
        CHANNELS 3 Zrotation Xrotation Yrotation
        JOINT Neck
        {
          OFFSET 0 22.3112 1.06372
          CHANNELS 3 Zrotation Xrotation Yrotation
          JOINT Head
          {
            OFFSET 0 6.74081 0
            CHANNELS 3 Zrotation Xrotation Yrotation
            End Site
            {
              OFFSET 0 16.3165 -5.38097
            }
          }
        }
        JOINT RightShoulder
        {
          OFFSET -3.65916 9.38468 -0.509514
          CHANNELS 3 Zrotation Xrotation Yrotation
          JOINT RightArm
          {
            OFFSET 0 12.3089 0
            CHANNELS 3 Zrotation Xrotation Yrotation
            JOINT RightArmRoll
            {
              OFFSET 0 6.21375 0
              CHANNELS 3 Zrotation Xrotation Yrotation
              JOINT RightForeArm
              {
                OFFSET 0 18.0985 0
                CHANNELS 3 Zrotation Xrotation Yrotation
                JOINT RightForeArmRoll
                {
                  OFFSET 0 6.97279 0
                  CHANNELS 3 Zrotation Xrotation Yrotation
                  JOINT RightHand
                  {
                    OFFSET 0 13.9929 0
                    CHANNELS 3 Zrotation Xrotation Yrotation
                    End Site
                    {
                      OFFSET 0 0 0
                    }
                  }
                }
              }
            }
          }
        }
        JOINT LeftShoulder
        {
          OFFSET 3.65916 9.38468 -0.509514
          CHANNELS 3 Zrotation Xrotation Yrotation
          JOINT LeftArm
          {
            OFFSET 0 12.3089 0
            CHANNELS 3 Zrotation Xrotation Yrotation
            JOINT LeftArmRoll
            {
              OFFSET 0 6.21375 0
              CHANNELS 3 Zrotation Xrotation Yrotation
              JOINT LeftForeArm
              {
                OFFSET 0 18.0985 0
                CHANNELS 3 Zrotation Xrotation Yrotation
                JOINT LeftForeArmRoll
                {
                  OFFSET 0 6.9728 0
                  CHANNELS 3 Zrotation Xrotation Yrotation
                  JOINT LeftHand
                  {
                    OFFSET 0 13.9929 0
                    CHANNELS 3 Zrotation Xrotation Yrotation
                    End Site
                    {
                      OFFSET 0 0 0
                    }
                  }
                }
              }
            }
          }
        }
      }
    }
  }
  JOINT RightUpLeg
  {
    OFFSET -5.53515 -1.015 -0.851454
    CHANNELS 3 Zrotation Xrotation Yrotation
    JOINT RightUpLegRoll
    {
      OFFSET 0 16.4075 0
      CHANNELS 3 Zrotation Xrotation Yrotation
      JOINT RightLeg
      {
        OFFSET 0 -20.3181 0
        CHANNELS 3 Zrotation Xrotation Yrotation
        JOINT RightLegRoll
        {
          OFFSET 0 20.3846 0
          CHANNELS 3 Zrotation Xrotation Yrotation
          JOINT RightFoot
          {
            OFFSET 0 16.9668 0
            CHANNELS 3 Zrotation Xrotation Yrotation
            JOINT RightToeBase
            {
              OFFSET 0 14.1834 0
              CHANNELS 3 Zrotation Xrotation Yrotation
              End Site
              {
                OFFSET 0.0060118 6.86889 -0.791746
              }
            }
          }
        }
      }
    }
  }
  JOINT LeftUpLeg
  {
    OFFSET 5.53515 -1.015 -0.851454
    CHANNELS 3 Zrotation Xrotation Yrotation
    JOINT LeftUpLegRoll
    {
      OFFSET 0 16.4076 0
      CHANNELS 3 Zrotation Xrotation Yrotation
      JOINT LeftLeg
      {
        OFFSET 0 20.3181 0
        CHANNELS 3 Zrotation Xrotation Yrotation
        JOINT LeftLegRoll
        {
          OFFSET 0 20.5731 0
          CHANNELS 3 Zrotation Xrotation Yrotation
          JOINT LeftFoot
          {
            OFFSET 0 16.7783 0
            CHANNELS 3 Zrotation Xrotation Yrotation
            JOINT LeftToeBase
            {
              OFFSET 0 14.1834 0
              CHANNELS 3 Zrotation Xrotation Yrotation
              End Site
              {
                OFFSET -0.0269423 6.86889 -0.791746
              }
            }
          }
        }
      }
    }
  }
}
MOTION
Frames: 9
Frame Time: 0.00208333
49.7766 61.9251 1.55266 -3.52982 44.0797 -2.90059 0.924458 1.47213 0.0863911 1.85633 6.94663 0.0291506 1.86041 8.59122 -0.00220429 -9.26094 28.9634 0.791006 8.67067 4.23062 -2.97287 39.7568 -4.04894 -0.821973 135.987 25.3646 -44.853 -1.59028e-014 -1.90833e-014 1.27222e-014 19.17 71.0259 -17.135 -1.47723e-006 -4.5614e-006 -3 8.02913 -4.95145 0.697685 -67.6432 -0.645661 1.33185 -97.878 22.7062 29.9863 -1.6671e-007 -3.71425e-007 8.97845e-006 -24.2449 76.2457 24.4758 7.71772e-006 -2.41235e-006 3.00002 -8.03024 -4.95137 -0.697652 -29.6417 69.6661 -150.027 180 7.01647e-015 179.53 170.216 73.0982 -173.571 1.13125e-006 -3.04726e-006 1.38209 -27.027 72.8157 25.1882 8.13227 25.2902 -3.48588 -3.46239 70.5464 -170.398 4.54188e-006 -4.6773e-006 -0.670497 52.8838 -86.7488 51.4961 -6.39798e-007 2.19306e-006 -2.42512 28.9964 76.6236 -31.1884 -8.08898 28.8759 -0.644697 
49.7826 61.8629 1.517 -3.57635 44.0153 -2.89418 0.925848 1.46964 0.0850827 1.85894 6.94168 0.027024 1.86305 8.58627 -0.0043785 -9.23168 28.9727 0.792857 8.64332 4.20938 -2.95799 39.7904 -4.03356 -0.811875 135.928 25.3785 -44.8815 -1.27222e-014 3.18055e-015 -1.27222e-014 19.1883 71.0634 -17.1633 -1.47723e-006 -4.5614e-006 -3 8.02913 -4.95145 0.697685 -67.6336 -0.608178 1.31137 -97.8383 22.6155 29.9693 -1.6671e-007 -3.71425e-007 8.97845e-006 -24.1616 76.3339 24.4491 7.71772e-006 -2.41235e-006 3.00002 -8.03024 -4.95137 -0.697652 -29.5488 69.6066 -150.123 180 7.01647e-015 179.527 170.268 73.2245 -173.597 1.13125e-006 -3.04726e-006 1.37985 -26.829 72.7491 25.0761 8.13733 25.3632 -3.488 -3.49354 70.4938 -170.355 4.54188e-006 -4.6773e-006 -0.671644 54.4011 -86.7782 52.988 -6.39798e-007 2.19306e-006 -2.42909 28.9731 76.6119 -31.1628 -8.08863 28.8417 -0.655345 
49.7806 61.7987 1.47926 -3.62406 43.9498 -2.88699 0.927384 1.46662 0.0834463 1.86191 6.93569 0.0241178 1.86607 8.58029 -0.00733987 -9.20814 28.991 0.797851 8.62088 4.18059 -2.94239 39.8233 -4.01135 -0.79565 135.867 25.391 -44.9014 3.18055e-015 9.54166e-015 -3.18055e-015 19.2072 71.0987 -17.1914 -1.47723e-006 -4.5614e-006 -3 8.02913 -4.95145 0.697685 -67.63 -0.565044 1.28859 -97.7896 22.5199 29.9441 -1.6671e-007 -3.71425e-007 8.97845e-006 -24.0832 76.4254 24.4283 7.71772e-006 -2.41235e-006 3.00002 -8.03024 -4.95137 -0.697652 -29.4575 69.5463 -150.23 180 7.01647e-015 179.525 170.361 73.3594 -173.654 1.13125e-006 -3.04726e-006 1.37659 -26.594 72.676 24.9516 8.14337 25.4501 -3.49054 -3.52904 70.4446 -170.307 4.54188e-006 -4.6773e-006 -0.672759 55.8629 -86.8018 54.4242 -6.39798e-007 2.19306e-006 -2.43277 28.9446 76.5978 -31.1317 -8.08833 28.8068 -0.666334 
49.756 61.9496 1.34019 -3.67286 43.8835 -2.8789 0.929049 1.46312 0.0815278 1.86522 6.92876 0.0205316 1.86942 8.57336 -0.010988 -9.18897 29.017 0.805232 8.60233 4.14523 -2.92624 39.8559 -3.98335 -0.774272 135.804 25.4023 -44.9139 3.18055e-015 -6.36111e-015 -1.27222e-014 19.2268 71.1321 -17.2194 -1.47723e-006 -4.5614e-006 -3 8.02913 -4.95145 0.697685 -67.6313 -0.517404 1.264 -97.7335 22.4207 29.9122 -1.6671e-007 -3.71425e-007 8.97845e-006 -24.0099 76.5197 24.4131 7.71772e-006 -2.41235e-006 3.00002 -8.03024 -4.95137 -0.697652 -29.3674 69.4855 -150.345 180 7.01647e-015 179.522 170.49 73.5014 -173.738 1.13125e-006 -3.04726e-006 1.37247 -26.3288 72.5975 24.8173 8.15022 25.5485 -3.49343 -3.56782 70.3985 -170.254 4.54188e-006 -4.6773e-006 -0.673845 57.2717 -86.8204 55.8071 -6.39798e-007 2.19306e-006 -2.43621 28.9117 76.5816 -31.0958 -8.08807 28.7712 -0.677489 
49.7529 61.8925 1.30736 -3.72266 43.8165 -2.86979 0.930825 1.4592 0.0793729 1.86881 6.921 0.0163649 1.87307 8.56559 -0.0152223 -9.17281 29.0494 0.814247 8.58664 4.10431 -2.90972 39.8885 -3.95062 -0.748713 135.739 25.4128 -44.9202 -2.54444e-014 -2.54444e-014 1.27222e-014 19.2471 71.1639 -17.2475 -1.47723e-006 -4.5614e-006 -3 8.02913 -4.95145 0.697685 -67.6365 -0.466404 1.23807 -97.6719 22.3188 29.8751 -1.6671e-007 -3.71425e-007 8.97845e-006 -23.9417 76.6163 24.4035 7.71772e-006 -2.41235e-006 3.00002 -8.03024 -4.95137 -0.697652 -29.2786 69.4246 -150.468 180 7.01646e-015 179.52 170.648 73.6492 -173.844 1.13125e-006 -3.04726e-006 1.36766 -26.0397 72.5149 24.6759 8.15771 25.656 -3.49661 -3.60868 70.3548 -170.199 4.54188e-006 -4.6773e-006 -0.674906 58.6321 -86.8348 57.1414 -6.39798e-007 2.19306e-006 -2.43943 28.875 76.5635 -31.0559 -8.08786 28.7354 -0.688632 
49.7807 61.595 1.3869 -3.77336 43.7492 -2.85954 0.932695 1.45491 0.0770274 1.87264 6.91249 0.0117172 1.87696 8.55709 -0.0199424 -9.15829 29.087 0.82414 8.5728 4.05883 -2.89302 39.9214 -3.91422 -0.719944 135.671 25.4226 -44.9215 1.05934e-030 1.90833e-014 -3.18055e-015 19.2681 71.1945 -17.2758 -1.47723e-006 -4.5614e-006 -3 8.02913 -4.95145 0.697685 -67.6444 -0.41319 1.21128 -97.6065 22.2153 29.8343 -1.6671e-007 -3.71425e-007 8.97845e-006 -23.8787 76.7144 24.3991 7.71772e-006 -2.41235e-006 3.00002 -8.03024 -4.95137 -0.697652 -29.1907 69.3637 -150.596 180 7.01646e-015 179.517 170.83 73.8011 -173.969 1.13125e-006 -3.04726e-006 1.36233 -25.7335 72.4295 24.53 8.16569 25.7703 -3.5 -3.65053 70.3132 -170.142 4.54188e-006 -4.6773e-006 -0.675947 59.9495 -86.8455 58.4326 -6.39798e-007 2.19306e-006 -2.44245 28.8352 76.544 -31.0128 -8.08771 28.6996 -0.699586 
49.7807 61.5336 1.35022 -3.82488 43.6816 -2.84803 0.934641 1.45031 0.0745371 1.87666 6.90335 0.00668797 1.88105 8.54795 -0.025048 -9.14405 29.1286 0.834156 8.55979 4.00979 -2.87631 39.9551 -3.87519 -0.688936 135.601 25.432 -44.919 6.36111e-015 -3.18055e-015 3.18055e-015 19.2899 71.2242 -17.3045 -1.47723e-006 -4.5614e-006 -3 8.02913 -4.95145 0.697685 -67.654 -0.358907 1.18411 -97.5389 22.1114 29.7912 -1.6671e-007 -3.71425e-007 8.97845e-006 -23.8209 76.8136 24.3998 7.71772e-006 -2.41235e-006 3.00002 -8.03024 -4.95137 -0.697652 -29.1035 69.3031 -150.727 180 7.01646e-015 179.514 171.03 73.9556 -174.107 1.13125e-006 -3.04726e-006 1.35662 -25.4163 72.3424 24.382 8.174 25.889 -3.50354 -3.69222 70.273 -170.084 4.54188e-006 -4.6773e-006 -0.67697 61.2309 -86.8531 59.6878 -6.39798e-007 2.19306e-006 -2.44532 28.7931 76.5233 -30.9673 -8.08762 28.6641 -0.710177 
49.7482 61.5972 1.24802 -3.87711 43.6139 -2.83515 0.936645 1.44545 0.0719478 1.88084 6.89368 0.00137674 1.88529 8.53827 -0.0304385 -9.12873 29.173 0.843536 8.54658 3.95819 -2.85979 39.9899 -3.83461 -0.656663 135.53 25.4413 -44.914 -3.18055e-015 -1.27222e-014 3.18055e-015 19.3125 71.2532 -17.3336 -1.47723e-006 -4.5614e-006 -3 8.02913 -4.95145 0.697685 -67.6641 -0.304703 1.15705 -97.471 22.0082 29.7474 -1.6671e-007 -3.71425e-007 8.97845e-006 -23.7686 76.9132 24.4055 7.71772e-006 -2.41235e-006 3.00002 -8.03024 -4.95137 -0.697652 -29.0168 69.2431 -150.861 180 7.01645e-015 179.512 171.24 74.1113 -174.254 1.13125e-006 -3.04726e-006 1.35072 -25.0945 72.255 24.2344 8.18246 26.0098 -3.50716 -3.73266 70.2338 -170.027 4.54188e-006 -4.6773e-006 -0.677981 62.4843 -86.8582 60.9149 -6.39798e-007 2.19306e-006 -2.44806 28.7494 76.5018 -30.92 -8.08759 28.6291 -0.720228 
49.7507 61.5493 1.20774 -3.92997 43.5465 -2.82077 0.938691 1.44038 0.0693052 1.88512 6.88357 -0.00411701 1.88964 8.52816 -0.0360135 -9.11094 29.2188 0.851522 8.53214 3.90504 -2.84362 40.0261 -3.79352 -0.624093 135.457 25.4506 -44.9077 3.53113e-030 1.59028e-014 -1.27222e-014 19.336 71.282 -17.3634 -1.47723e-006 -4.5614e-006 -3 8.02913 -4.95145 0.697685 -67.6737 -0.251723 1.13056 -97.4044 21.9068 29.7042 -1.6671e-007 -3.71425e-007 8.97845e-006 -23.7216 77.0128 24.4158 7.71772e-006 -2.41235e-006 3.00002 -8.03024 -4.95137 -0.697652 -28.9302 69.184 -150.996 180 7.01645e-015 179.509 171.455 74.2666 -174.405 1.13125e-006 -3.04726e-006 1.34478 -24.7743 72.1685 24.0894 8.19091 26.1301 -3.51079 -3.77071 70.1951 -169.973 4.54188e-006 -4.6773e-006 -0.678983 63.7189 -86.8613 62.1232 -6.39798e-007 2.19306e-006 -2.4507 28.7048 76.4797 -30.8716 -8.08762 28.5948 -0.729564 
